%
M48
M72
T01C0.0250
T02C0.0315
T03C0.0320
T04C0.0360
T05C0.0394
T06C0.0400
%
T01
X7251Y3813
X9151Y3813
X11151Y3813
X13101Y3813
X13201Y4813
X14276Y3888
X16301Y3913
X16951Y5413
X17951Y5413
X18851Y5513
X19651Y5063
X20601Y3963
X22101Y5463
X18351Y3913
X15851Y5513
X14751Y5413
X16001Y8863
X20001Y8513
X20651Y8663
X16051Y12513
X18201Y12863
X17101Y15713
X16101Y15713
X17751Y17163
X23101Y15513
X24051Y15513
X33101Y20713
X34501Y21863
X31401Y24913
X26951Y23763
X9151Y20163
X8651Y19663
X7051Y17713
X5401Y18063
X4701Y18263
X9001Y15613
X4051Y11863
X6851Y8613
X3851Y8113
X6201Y5413
X8151Y5413
X7051Y22313
X8101Y22763
T02
X8601Y24813
X9601Y24813
X10601Y24813
X12601Y24813
X13601Y24813
X14601Y24813
X15601Y24813
X16601Y24813
X17601Y24813
X7601Y24813
X6601Y24813
X5601Y24813
X5601Y5813
X6601Y5813
X7601Y5813
X8601Y5813
X9601Y5813
X10601Y5813
X11601Y5813
X12601Y5813
X14351Y5813
X15351Y5813
X16351Y5813
X17351Y5813
X18351Y5813
X19351Y5813
X20351Y5813
X21351Y5813
T03
X21601Y7813
X20601Y7813
X19601Y7813
X18601Y7813
X17601Y7813
X16601Y7813
X15601Y7813
X14601Y7813
X13601Y7813
X12601Y7813
X11601Y7813
X10601Y7813
X9601Y7813
X8601Y7813
X7601Y7813
X6601Y7813
X5601Y7813
X5601Y13813
X6601Y13813
X7601Y13813
X8601Y13813
X9601Y13813
X10601Y13813
X11601Y13813
X12601Y13813
X13601Y13813
X14601Y13813
X15601Y13813
X16601Y13813
X17601Y13813
X18601Y13813
X19601Y13813
X20601Y13813
X21601Y13813
X22601Y13813
X23601Y13813
X24601Y13813
X24601Y16313
X25601Y16313
X26601Y16313
X27601Y16313
X28601Y16313
X29601Y16313
X30601Y16313
X31601Y16313
X23601Y16313
X22601Y16313
X21601Y16313
X20601Y16313
X19601Y16313
X18601Y16313
X17601Y16313
X16601Y16313
X15601Y16313
X14601Y16313
X13601Y16313
X12601Y16313
X11401Y21013
X10701Y21013
X12601Y22313
X13601Y22313
X14601Y22313
X15601Y22313
X16601Y22313
X17601Y22313
X18601Y22313
X19601Y22313
X20601Y22313
X21601Y22313
X22601Y22313
X23601Y22313
X24601Y22313
X25601Y22313
X26601Y22313
X27601Y22313
X28601Y22313
X29601Y22313
X30601Y22313
X31601Y22313
X24601Y7813
X23601Y7813
X22601Y7813
X6701Y21013
X11401Y23013
T04
X2101Y5313
X3101Y5313
X3101Y6313
X2101Y6313
X2101Y7313
X3101Y7313
X3101Y8313
X2101Y8313
X2101Y9313
X3101Y9313
X3101Y10313
X2101Y10313
X2101Y11313
X3101Y11313
X3101Y12313
X2101Y12313
X2101Y13313
X3101Y13313
X3101Y14313
X2101Y14313
X2101Y15313
X3101Y15313
X3101Y16313
X2101Y16313
X2101Y17313
X3101Y17313
X3101Y18313
X2101Y18313
X2101Y19313
X3101Y19313
X3101Y20313
X2101Y20313
X2101Y21313
X3101Y21313
X3101Y22313
X2101Y22313
X2101Y23313
X3101Y23313
X3101Y24313
X2101Y24313
X5701Y19513
X6701Y19513
X7701Y19513
X35101Y19313
X36101Y19313
X36101Y18313
X35101Y18313
X35101Y17313
X36101Y17313
X36101Y16313
X35101Y16313
X35101Y15313
X36101Y15313
X36101Y14313
X35101Y14313
X35101Y13313
X36101Y13313
X36101Y12313
X35101Y12313
X35101Y11313
X36101Y11313
X36101Y10313
X35101Y10313
X35101Y9313
X36101Y9313
X36101Y8313
X35101Y8313
X35101Y7313
X36101Y7313
X36101Y6313
X35101Y6313
X35101Y5313
X36101Y5313
X36101Y20313
X35101Y20313
X35101Y21313
X36101Y21313
X36101Y22313
X35101Y22313
X35101Y23313
X36101Y23313
X36101Y24313
X35101Y24313
T05
X30101Y5534
X31991Y4313
X30101Y3132
T06
X6101Y22313
X6101Y23313
M30
