G75*
G70*
%OFA0B0*%
%FSLAX24Y24*%
%IPPOS*%
%LPD*%
%AMOC8*
5,1,8,0,0,1.08239X$1,22.5*
%
%ADD10C,0.0520*%
%ADD11OC8,0.0515*%
%ADD12C,0.0560*%
%ADD13OC8,0.0520*%
%ADD14C,0.0560*%
%ADD15OC8,0.0560*%
%ADD16R,0.0320X0.0320*%
%ADD17R,0.0240X0.0320*%
%ADD18R,0.0320X0.0240*%
%ADD19C,0.0787*%
%ADD20C,0.0600*%
%ADD21C,0.0060*%
%ADD22OC8,0.0410*%
%ADD23C,0.0700*%
%ADD24C,0.0500*%
%ADD25C,0.0400*%
D10*
X005601Y007553D02*
X005601Y008073D01*
X006601Y008073D02*
X006601Y007553D01*
X007601Y007553D02*
X007601Y008073D01*
X008601Y008073D02*
X008601Y007553D01*
X009601Y007553D02*
X009601Y008073D01*
X010601Y008073D02*
X010601Y007553D01*
X011601Y007553D02*
X011601Y008073D01*
X012601Y008073D02*
X012601Y007553D01*
X013601Y007553D02*
X013601Y008073D01*
X014601Y008073D02*
X014601Y007553D01*
X015601Y007553D02*
X015601Y008073D01*
X016601Y008073D02*
X016601Y007553D01*
X017601Y007553D02*
X017601Y008073D01*
X018601Y008073D02*
X018601Y007553D01*
X019601Y007553D02*
X019601Y008073D01*
X020601Y008073D02*
X020601Y007553D01*
X021601Y007553D02*
X021601Y008073D01*
X022601Y008073D02*
X022601Y007553D01*
X023601Y007553D02*
X023601Y008073D01*
X024601Y008073D02*
X024601Y007553D01*
X024601Y013553D02*
X024601Y014073D01*
X023601Y014073D02*
X023601Y013553D01*
X022601Y013553D02*
X022601Y014073D01*
X021601Y014073D02*
X021601Y013553D01*
X020601Y013553D02*
X020601Y014073D01*
X019601Y014073D02*
X019601Y013553D01*
X018601Y013553D02*
X018601Y014073D01*
X017601Y014073D02*
X017601Y013553D01*
X016601Y013553D02*
X016601Y014073D01*
X015601Y014073D02*
X015601Y013553D01*
X014601Y013553D02*
X014601Y014073D01*
X013601Y014073D02*
X013601Y013553D01*
X012601Y013553D02*
X012601Y014073D01*
X011601Y014073D02*
X011601Y013553D01*
X010601Y013553D02*
X010601Y014073D01*
X009601Y014073D02*
X009601Y013553D01*
X008601Y013553D02*
X008601Y014073D01*
X007601Y014073D02*
X007601Y013553D01*
X006601Y013553D02*
X006601Y014073D01*
X005601Y014073D02*
X005601Y013553D01*
X012601Y016053D02*
X012601Y016573D01*
X013601Y016573D02*
X013601Y016053D01*
X014601Y016053D02*
X014601Y016573D01*
X015601Y016573D02*
X015601Y016053D01*
X016601Y016053D02*
X016601Y016573D01*
X017601Y016573D02*
X017601Y016053D01*
X018601Y016053D02*
X018601Y016573D01*
X019601Y016573D02*
X019601Y016053D01*
X020601Y016053D02*
X020601Y016573D01*
X021601Y016573D02*
X021601Y016053D01*
X022601Y016053D02*
X022601Y016573D01*
X023601Y016573D02*
X023601Y016053D01*
X024601Y016053D02*
X024601Y016573D01*
X025601Y016573D02*
X025601Y016053D01*
X026601Y016053D02*
X026601Y016573D01*
X027601Y016573D02*
X027601Y016053D01*
X028601Y016053D02*
X028601Y016573D01*
X029601Y016573D02*
X029601Y016053D01*
X030601Y016053D02*
X030601Y016573D01*
X031601Y016573D02*
X031601Y016053D01*
X031601Y022053D02*
X031601Y022573D01*
X030601Y022573D02*
X030601Y022053D01*
X029601Y022053D02*
X029601Y022573D01*
X028601Y022573D02*
X028601Y022053D01*
X027601Y022053D02*
X027601Y022573D01*
X026601Y022573D02*
X026601Y022053D01*
X025601Y022053D02*
X025601Y022573D01*
X024601Y022573D02*
X024601Y022053D01*
X023601Y022053D02*
X023601Y022573D01*
X022601Y022573D02*
X022601Y022053D01*
X021601Y022053D02*
X021601Y022573D01*
X020601Y022573D02*
X020601Y022053D01*
X019601Y022053D02*
X019601Y022573D01*
X018601Y022573D02*
X018601Y022053D01*
X017601Y022053D02*
X017601Y022573D01*
X016601Y022573D02*
X016601Y022053D01*
X015601Y022053D02*
X015601Y022573D01*
X014601Y022573D02*
X014601Y022053D01*
X013601Y022053D02*
X013601Y022573D01*
X012601Y022573D02*
X012601Y022053D01*
D11*
X012601Y024813D03*
X013601Y024813D03*
X014601Y024813D03*
X015601Y024813D03*
X016601Y024813D03*
X017601Y024813D03*
X010601Y024813D03*
X009601Y024813D03*
X008601Y024813D03*
X007601Y024813D03*
X006601Y024813D03*
X005601Y024813D03*
X005601Y005813D03*
X006601Y005813D03*
X007601Y005813D03*
X008601Y005813D03*
X009601Y005813D03*
X010601Y005813D03*
X011601Y005813D03*
X012601Y005813D03*
X014351Y005813D03*
X015351Y005813D03*
X016351Y005813D03*
X017351Y005813D03*
X018351Y005813D03*
X019351Y005813D03*
X020351Y005813D03*
X021351Y005813D03*
D12*
X007701Y019233D02*
X007701Y019793D01*
X006701Y019793D02*
X006701Y019233D01*
X005701Y019233D02*
X005701Y019793D01*
D13*
X006701Y021013D03*
X010701Y021013D03*
X011401Y021013D03*
X011401Y023013D03*
D14*
X035101Y024313D03*
X003101Y005313D03*
D15*
X002101Y005313D03*
X002101Y006313D03*
X003101Y006313D03*
X003101Y007313D03*
X002101Y007313D03*
X002101Y008313D03*
X003101Y008313D03*
X003101Y009313D03*
X002101Y009313D03*
X002101Y010313D03*
X003101Y010313D03*
X003101Y011313D03*
X002101Y011313D03*
X002101Y012313D03*
X003101Y012313D03*
X003101Y013313D03*
X002101Y013313D03*
X002101Y014313D03*
X003101Y014313D03*
X003101Y015313D03*
X002101Y015313D03*
X002101Y016313D03*
X003101Y016313D03*
X003101Y017313D03*
X002101Y017313D03*
X002101Y018313D03*
X003101Y018313D03*
X003101Y019313D03*
X002101Y019313D03*
X002101Y020313D03*
X003101Y020313D03*
X003101Y021313D03*
X002101Y021313D03*
X002101Y022313D03*
X003101Y022313D03*
X003101Y023313D03*
X002101Y023313D03*
X002101Y024313D03*
X003101Y024313D03*
X035101Y023313D03*
X036101Y023313D03*
X036101Y022313D03*
X035101Y022313D03*
X035101Y021313D03*
X036101Y021313D03*
X036101Y020313D03*
X035101Y020313D03*
X035101Y019313D03*
X036101Y019313D03*
X036101Y018313D03*
X035101Y018313D03*
X035101Y017313D03*
X036101Y017313D03*
X036101Y016313D03*
X035101Y016313D03*
X035101Y015313D03*
X036101Y015313D03*
X036101Y014313D03*
X035101Y014313D03*
X035101Y013313D03*
X036101Y013313D03*
X036101Y012313D03*
X035101Y012313D03*
X035101Y011313D03*
X036101Y011313D03*
X036101Y010313D03*
X035101Y010313D03*
X035101Y009313D03*
X036101Y009313D03*
X036101Y008313D03*
X035101Y008313D03*
X035101Y007313D03*
X036101Y007313D03*
X036101Y006313D03*
X035101Y006313D03*
X035101Y005313D03*
X036101Y005313D03*
X036101Y024313D03*
D16*
X018301Y004913D03*
X017301Y004213D03*
X016301Y004913D03*
X015301Y004213D03*
X014201Y004913D03*
X012601Y004313D03*
X011601Y004913D03*
X010601Y004313D03*
X009601Y004913D03*
X008601Y004313D03*
X007601Y004913D03*
X006601Y004313D03*
X005601Y004913D03*
X019401Y004213D03*
D17*
X018851Y004213D03*
X018851Y004913D03*
X017751Y004913D03*
X016851Y004913D03*
X016751Y004213D03*
X015851Y004213D03*
X015751Y004913D03*
X014751Y004913D03*
X014751Y004213D03*
X013651Y004913D03*
X013151Y004313D03*
X012051Y004313D03*
X012151Y004913D03*
X011051Y004913D03*
X011151Y004313D03*
X010051Y004313D03*
X010151Y004913D03*
X009151Y004313D03*
X009051Y004913D03*
X008151Y004913D03*
X008051Y004313D03*
X007151Y004313D03*
X007051Y004913D03*
X006151Y004913D03*
X006051Y004313D03*
X005051Y004913D03*
X017851Y004213D03*
X019951Y004213D03*
D18*
X019401Y003663D03*
X018301Y004363D03*
X017301Y003663D03*
X016301Y004363D03*
X015301Y003663D03*
X014201Y004363D03*
X012601Y003763D03*
X011601Y004363D03*
X010601Y003763D03*
X009601Y004363D03*
X008601Y003763D03*
X007601Y004363D03*
X006601Y003763D03*
X005601Y004363D03*
D19*
X029707Y005534D02*
X030494Y005534D01*
X031991Y004707D02*
X031991Y003920D01*
X030494Y003132D02*
X029707Y003132D01*
D20*
X006401Y022313D02*
X005801Y022313D01*
X005801Y023313D02*
X006401Y023313D01*
D21*
X007051Y022313D02*
X008151Y023413D01*
X013351Y023413D01*
X014001Y022763D01*
X014001Y022063D01*
X018101Y017963D01*
X018101Y015963D01*
X019501Y014563D01*
X019501Y014313D01*
X019601Y013813D01*
X019201Y014063D02*
X019201Y013363D01*
X019601Y012963D01*
X021351Y012963D01*
X027451Y006863D01*
X035501Y006863D01*
X035851Y007213D01*
X036101Y007313D01*
X035101Y007313D02*
X034851Y007413D01*
X027151Y007413D01*
X021201Y013363D01*
X021201Y014063D01*
X020801Y014463D01*
X020601Y014463D01*
X019101Y015963D01*
X018851Y015963D01*
X018601Y016313D01*
X017601Y016313D02*
X017701Y015813D01*
X017701Y015563D01*
X019201Y014063D01*
X018601Y013813D02*
X018501Y014313D01*
X017101Y015713D01*
X016701Y015813D02*
X016701Y015563D01*
X018201Y014063D01*
X018201Y013363D01*
X018801Y012763D01*
X021301Y012763D01*
X027651Y006413D01*
X034851Y006413D01*
X035101Y006313D01*
X035101Y008313D02*
X034851Y008413D01*
X027151Y008413D01*
X022201Y013363D01*
X022201Y014063D01*
X021801Y014463D01*
X021601Y014463D01*
X020101Y015963D01*
X019851Y015963D01*
X019601Y016313D01*
X020601Y016313D02*
X020851Y015963D01*
X021101Y015963D01*
X022601Y014463D01*
X022801Y014463D01*
X023201Y014063D01*
X023201Y013363D01*
X027701Y008863D01*
X035501Y008863D01*
X035851Y009213D01*
X036101Y009313D01*
X035501Y009863D02*
X035851Y010213D01*
X036101Y010313D01*
X035501Y009863D02*
X029951Y009863D01*
X024301Y015513D01*
X024051Y015513D01*
X024101Y015963D02*
X023851Y015963D01*
X023601Y016313D01*
X024101Y015963D02*
X029651Y010413D01*
X034851Y010413D01*
X035101Y010313D01*
X035501Y010863D02*
X035851Y011213D01*
X036101Y011313D01*
X035501Y010863D02*
X030201Y010863D01*
X025101Y015963D01*
X024851Y015963D01*
X024601Y016313D01*
X025601Y016313D02*
X025851Y015963D01*
X026101Y015963D01*
X030651Y011413D01*
X034851Y011413D01*
X035101Y011313D01*
X035501Y011863D02*
X035851Y012213D01*
X036101Y012313D01*
X035501Y011863D02*
X031201Y011863D01*
X027101Y015963D01*
X026851Y015963D01*
X026601Y016313D01*
X027601Y016313D02*
X027851Y015963D01*
X028101Y015963D01*
X031651Y012413D01*
X034851Y012413D01*
X035101Y012313D01*
X035501Y012863D02*
X035851Y013213D01*
X036101Y013313D01*
X035501Y012863D02*
X032201Y012863D01*
X029101Y015963D01*
X028851Y015963D01*
X028601Y016313D01*
X029601Y016313D02*
X029851Y015963D01*
X030101Y015963D01*
X032201Y013863D01*
X035501Y013863D01*
X035851Y014213D01*
X036101Y014313D01*
X036251Y014863D02*
X035701Y014863D01*
X035351Y015213D01*
X035101Y015313D01*
X035051Y015763D02*
X035501Y015763D01*
X035851Y015413D01*
X036101Y015313D01*
X036251Y014863D02*
X036551Y015163D01*
X036551Y017463D01*
X036251Y017763D01*
X035051Y017763D01*
X030851Y021963D01*
X030601Y022313D01*
X030201Y022563D02*
X030201Y021863D01*
X034851Y017213D01*
X035101Y017313D01*
X035051Y016763D02*
X035501Y016763D01*
X035851Y016413D01*
X036101Y016313D01*
X035101Y016313D02*
X034851Y016213D01*
X029101Y021963D01*
X028851Y021963D01*
X028601Y022313D01*
X029601Y022313D02*
X029851Y021963D01*
X035051Y016763D01*
X034851Y015963D02*
X035051Y015763D01*
X034851Y015963D02*
X031851Y015963D01*
X031601Y016313D01*
X031101Y015963D02*
X032651Y014413D01*
X034851Y014413D01*
X035101Y014313D01*
X031101Y015963D02*
X030851Y015963D01*
X030601Y016313D01*
X034851Y018213D02*
X035101Y018313D01*
X034851Y018213D02*
X031201Y021863D01*
X031201Y022563D01*
X030601Y023163D01*
X027351Y023163D01*
X027151Y022963D01*
X025401Y022963D01*
X025101Y022663D01*
X024851Y022663D01*
X024601Y022313D01*
X024101Y022663D02*
X023851Y022663D01*
X023601Y022313D01*
X024101Y022663D02*
X024651Y023213D01*
X027151Y023213D01*
X027301Y023363D01*
X031401Y023363D01*
X035201Y019563D01*
X035101Y019313D01*
X035051Y018763D02*
X035501Y018763D01*
X035851Y018413D01*
X036101Y018313D01*
X035051Y018763D02*
X033101Y020713D01*
X034351Y021513D02*
X034701Y021513D01*
X034951Y021763D01*
X035501Y021763D01*
X035851Y021413D01*
X036101Y021313D01*
X035501Y020763D02*
X035851Y020413D01*
X036101Y020313D01*
X035501Y020763D02*
X034851Y020763D01*
X031851Y023763D01*
X026951Y023763D01*
X027251Y023563D02*
X031701Y023563D01*
X034851Y020413D01*
X035101Y020313D01*
X034351Y021513D02*
X031751Y024113D01*
X025051Y024113D01*
X024451Y023513D01*
X021951Y023513D01*
X021101Y022663D01*
X020851Y022663D01*
X020601Y022313D01*
X020101Y022663D02*
X021151Y023713D01*
X024401Y023713D01*
X025001Y024313D01*
X032051Y024313D01*
X034501Y021863D01*
X034851Y022413D02*
X035101Y022313D01*
X034851Y022413D02*
X032751Y024513D01*
X019951Y024513D01*
X018101Y022663D01*
X017851Y022663D01*
X017601Y022313D01*
X017101Y022663D02*
X019701Y025263D01*
X033551Y025263D01*
X035051Y023763D01*
X035501Y023763D01*
X035851Y023413D01*
X036101Y023313D01*
X036551Y023163D02*
X036251Y022863D01*
X035701Y022863D01*
X035351Y023213D01*
X035101Y023313D01*
X035051Y022763D02*
X035501Y022763D01*
X035851Y022413D01*
X036101Y022313D01*
X035051Y022763D02*
X032901Y024913D01*
X031401Y024913D01*
X029801Y022963D02*
X030201Y022563D01*
X029801Y022963D02*
X027401Y022963D01*
X027101Y022663D01*
X026851Y022663D01*
X026601Y022313D01*
X027101Y023413D02*
X024601Y023413D01*
X024351Y023163D01*
X022601Y023163D01*
X022101Y022663D01*
X021851Y022663D01*
X021601Y022313D01*
X020101Y022663D02*
X019851Y022663D01*
X019601Y022313D01*
X017101Y022663D02*
X016851Y022663D01*
X016601Y022313D01*
X016101Y022663D02*
X015851Y022663D01*
X015601Y022313D01*
X016101Y022663D02*
X018901Y025463D01*
X034551Y025463D01*
X035651Y024363D01*
X035651Y024163D01*
X036051Y023763D01*
X036251Y023763D01*
X036551Y023463D01*
X036551Y023163D01*
X036101Y024313D02*
X035851Y024413D01*
X034601Y025663D01*
X017901Y025663D01*
X017201Y024963D01*
X017201Y024863D01*
X015001Y022663D01*
X014851Y022663D01*
X014601Y022313D01*
X013601Y022313D02*
X013701Y021813D01*
X015001Y020513D01*
X015001Y016063D01*
X015401Y015663D01*
X015601Y015663D01*
X017001Y014263D01*
X017001Y013563D01*
X018201Y012363D01*
X018901Y012363D01*
X023101Y008163D01*
X023351Y008163D01*
X023601Y007813D01*
X024001Y007363D02*
X022451Y005813D01*
X021901Y005813D01*
X021151Y005063D01*
X019651Y005063D01*
X019301Y005563D02*
X019301Y004363D01*
X019401Y004213D01*
X019151Y003913D02*
X019851Y003913D01*
X019851Y003613D01*
X019651Y003413D01*
X018351Y003413D01*
X017951Y003813D01*
X017951Y004063D01*
X017851Y004213D01*
X017601Y003963D02*
X017601Y003463D01*
X017551Y003413D01*
X015051Y003413D01*
X014801Y003663D01*
X014601Y003663D01*
X014201Y003263D01*
X006201Y003263D01*
X005301Y004163D01*
X005301Y004613D01*
X005151Y004763D01*
X005051Y004913D01*
X005301Y004613D02*
X005851Y004613D01*
X005951Y004513D01*
X005951Y004463D01*
X006051Y004313D01*
X006151Y004163D01*
X006301Y004013D01*
X006851Y004013D01*
X006901Y004063D01*
X006901Y004713D01*
X006951Y004763D01*
X007051Y004913D01*
X007151Y004763D01*
X007301Y004613D01*
X007851Y004613D01*
X007951Y004513D01*
X007951Y004463D01*
X008051Y004313D01*
X008151Y004163D01*
X008301Y004013D01*
X008851Y004013D01*
X008901Y004063D01*
X008901Y004713D01*
X008951Y004763D01*
X009051Y004913D01*
X009151Y004763D01*
X009301Y004613D01*
X009851Y004613D01*
X009951Y004513D01*
X009951Y004463D01*
X010051Y004313D01*
X010151Y004163D01*
X010301Y004013D01*
X010851Y004013D01*
X010901Y004063D01*
X010901Y004713D01*
X010951Y004763D01*
X011051Y004913D01*
X011151Y004763D01*
X011301Y004613D01*
X011851Y004613D01*
X011951Y004513D01*
X011951Y004463D01*
X012051Y004313D01*
X011751Y004263D02*
X011601Y004363D01*
X011751Y004263D02*
X011751Y004113D01*
X011851Y004013D01*
X011301Y003463D01*
X010951Y003463D01*
X010751Y003663D01*
X010601Y003763D01*
X010451Y003813D01*
X010051Y003813D01*
X009851Y004013D01*
X009301Y003463D01*
X008951Y003463D01*
X008751Y003663D01*
X008601Y003763D01*
X008451Y003813D01*
X008051Y003813D01*
X007901Y003963D01*
X007401Y003463D01*
X007101Y003463D01*
X006901Y003663D01*
X006751Y003663D01*
X006601Y003763D01*
X006451Y003813D01*
X006051Y003813D01*
X005601Y004263D01*
X005601Y004363D01*
X005601Y004913D02*
X005601Y005813D01*
X005401Y006213D02*
X004976Y005763D01*
X002501Y005763D01*
X002101Y005313D01*
X002101Y006313D02*
X002501Y006763D01*
X003301Y006763D01*
X003526Y006613D01*
X019401Y006613D01*
X020601Y007813D01*
X020001Y008513D02*
X019701Y008813D01*
X016201Y008813D01*
X016001Y008863D01*
X016001Y011563D01*
X014001Y013563D01*
X014001Y015513D01*
X013701Y015813D01*
X013601Y016313D01*
X014001Y016063D02*
X014001Y016863D01*
X008101Y022763D01*
X007201Y021863D02*
X003701Y021863D01*
X003351Y022213D01*
X003101Y022313D01*
X003151Y021863D02*
X002951Y021863D01*
X002551Y022263D01*
X002551Y022713D01*
X002201Y023063D01*
X002101Y023313D01*
X003151Y021863D02*
X003351Y021663D01*
X007151Y021663D01*
X009001Y019813D01*
X009001Y019513D01*
X007201Y017713D01*
X007051Y017713D01*
X007001Y017363D02*
X006651Y017363D01*
X003251Y020763D01*
X002701Y020763D01*
X002351Y020413D01*
X002101Y020313D01*
X002701Y019763D02*
X002351Y019413D01*
X002101Y019313D01*
X002701Y019763D02*
X003251Y019763D01*
X003551Y019463D01*
X003551Y019413D01*
X004701Y018263D01*
X005401Y018063D02*
X003301Y020163D01*
X003101Y020313D01*
X003101Y019313D02*
X003301Y019163D01*
X005301Y017163D01*
X006951Y017163D01*
X008851Y015263D01*
X012001Y015263D01*
X013101Y014163D01*
X013351Y014163D01*
X013601Y013813D01*
X015001Y013563D02*
X015001Y015063D01*
X014001Y016063D01*
X014601Y016313D02*
X014701Y015813D01*
X014701Y015613D01*
X016201Y014113D01*
X016201Y013113D01*
X020651Y008663D01*
X021601Y007813D02*
X021601Y007713D01*
X020301Y006413D01*
X005101Y006413D01*
X004901Y006213D01*
X003201Y006213D01*
X003101Y006313D01*
X003576Y006813D02*
X003101Y007313D01*
X003251Y007763D02*
X002901Y007763D01*
X002601Y007413D01*
X002201Y007413D01*
X002101Y007313D01*
X003251Y007763D02*
X004201Y006988D01*
X017601Y006988D01*
X018601Y007813D01*
X017601Y007813D02*
X016951Y007163D01*
X004276Y007163D01*
X003276Y008013D01*
X003101Y008313D01*
X003576Y006813D02*
X018601Y006813D01*
X019601Y007813D01*
X021101Y006213D02*
X005401Y006213D01*
X006201Y005413D02*
X006201Y005063D01*
X006151Y004913D01*
X006601Y004313D02*
X006601Y005813D01*
X007601Y005813D02*
X007601Y004913D01*
X007601Y004363D02*
X007601Y004263D01*
X007901Y003963D01*
X007251Y003813D02*
X007251Y004163D01*
X007151Y004313D01*
X008151Y004913D02*
X008151Y005413D01*
X008601Y005813D02*
X008601Y004313D01*
X009151Y004313D02*
X009151Y003813D01*
X009751Y004113D02*
X009851Y004013D01*
X009751Y004113D02*
X009751Y004263D01*
X009601Y004363D01*
X009601Y004913D02*
X009601Y005813D01*
X010601Y005813D02*
X010601Y004313D01*
X011151Y004313D02*
X011151Y003813D01*
X011851Y004013D02*
X012051Y003813D01*
X012451Y003813D01*
X012601Y003763D01*
X012751Y003663D01*
X012951Y003463D01*
X013251Y003463D01*
X014051Y004263D01*
X014201Y004363D01*
X014351Y004263D01*
X014276Y003888D01*
X014801Y004063D02*
X014801Y003663D01*
X015051Y003913D02*
X015601Y003913D01*
X015751Y004063D01*
X015851Y004213D01*
X015951Y004363D01*
X015951Y004513D01*
X016051Y004613D01*
X016601Y004613D01*
X016751Y004763D01*
X016851Y004913D01*
X016951Y005063D01*
X016951Y005413D01*
X017301Y005563D02*
X017351Y005813D01*
X017301Y005563D02*
X017301Y004213D01*
X017551Y003913D02*
X017001Y003913D01*
X016851Y004063D01*
X016751Y004213D01*
X016301Y004363D02*
X016301Y003913D01*
X016301Y003663D01*
X017301Y003663D01*
X017551Y003913D02*
X017601Y003963D01*
X017601Y004613D01*
X017951Y004613D01*
X017951Y005413D01*
X018301Y005563D02*
X018351Y005813D01*
X018301Y005563D02*
X018301Y004913D01*
X018551Y004613D02*
X017951Y004613D01*
X017651Y004763D02*
X017751Y004913D01*
X017651Y004763D02*
X017601Y004713D01*
X017601Y004613D01*
X018301Y004363D02*
X018451Y004263D01*
X018451Y004113D01*
X018501Y004063D01*
X018351Y003913D01*
X018501Y004063D02*
X018851Y003713D01*
X019251Y003713D01*
X019401Y003663D01*
X019151Y003913D02*
X019101Y003963D01*
X019101Y004463D01*
X018951Y004613D01*
X018951Y004763D01*
X018851Y004913D01*
X018851Y005513D01*
X019301Y005563D02*
X019351Y005813D01*
X018551Y004613D02*
X018601Y004563D01*
X018601Y004513D01*
X018751Y004363D01*
X018851Y004213D01*
X019851Y004063D02*
X019851Y003913D01*
X019851Y004063D02*
X019951Y004213D01*
X020601Y003963D02*
X022101Y005463D01*
X021101Y006213D02*
X022601Y007713D01*
X022601Y007813D01*
X024001Y007363D02*
X024001Y008263D01*
X019701Y012563D01*
X018751Y012563D01*
X018451Y012863D01*
X018201Y012863D01*
X017601Y013813D02*
X017501Y014313D01*
X016101Y015713D01*
X016701Y015813D02*
X016601Y016313D01*
X016101Y016663D02*
X016601Y017163D01*
X017751Y017163D01*
X016101Y016663D02*
X015851Y016663D01*
X015601Y016313D01*
X015001Y013563D02*
X016051Y012513D01*
X011601Y013813D02*
X011351Y014163D01*
X011101Y014163D01*
X010201Y015063D01*
X008701Y015063D01*
X006801Y016963D01*
X004601Y016963D01*
X003351Y018213D01*
X003101Y018313D01*
X003251Y017763D02*
X002701Y017763D01*
X002351Y017413D01*
X002101Y017313D01*
X002251Y016763D02*
X001101Y016763D01*
X002101Y016313D02*
X002001Y016063D01*
X001651Y015713D01*
X001651Y014163D01*
X001951Y013863D01*
X003151Y013863D01*
X003851Y013163D01*
X007801Y013163D01*
X008101Y013463D01*
X008351Y013463D01*
X008601Y013813D01*
X009101Y014163D02*
X006701Y016563D01*
X004001Y016563D01*
X003351Y017213D01*
X003101Y017313D01*
X003251Y017763D02*
X004251Y016763D01*
X006751Y016763D01*
X008651Y014863D01*
X009401Y014863D01*
X010101Y014163D01*
X010351Y014163D01*
X010601Y013813D01*
X009601Y013813D02*
X009351Y014163D01*
X009101Y014163D01*
X007601Y013813D02*
X007351Y014163D01*
X007101Y014163D01*
X005501Y015763D01*
X002701Y015763D01*
X002351Y015413D01*
X002101Y015313D01*
X002701Y014763D02*
X002351Y014413D01*
X002101Y014313D01*
X002701Y014763D02*
X003251Y014763D01*
X003851Y014163D01*
X005351Y014163D01*
X005601Y013813D01*
X006101Y014163D02*
X005051Y015213D01*
X003351Y015213D01*
X003101Y015313D01*
X003101Y016313D02*
X002851Y016413D01*
X002601Y016413D01*
X002251Y016763D01*
X006101Y014163D02*
X006351Y014163D01*
X006601Y013813D01*
X008751Y015613D02*
X007001Y017363D01*
X008751Y015613D02*
X009001Y015613D01*
X003601Y012863D02*
X002701Y012863D01*
X002351Y013213D01*
X002101Y013313D01*
X003101Y013313D02*
X003426Y013313D01*
X008351Y008163D01*
X008601Y007813D01*
X007601Y007813D02*
X007501Y008313D01*
X007501Y008763D01*
X003601Y012863D01*
X003351Y012413D02*
X003101Y012313D01*
X003351Y012413D02*
X004051Y011863D01*
X003151Y011863D02*
X002701Y011863D01*
X002351Y012213D01*
X002101Y012313D01*
X003151Y011863D02*
X006401Y008613D01*
X006851Y008613D01*
X011601Y005813D02*
X011601Y004913D01*
X012151Y004913D02*
X012251Y004763D01*
X012301Y004713D01*
X012301Y004063D01*
X012351Y004013D01*
X012901Y004013D01*
X013101Y003813D01*
X012901Y004013D02*
X013051Y004163D01*
X013151Y004313D01*
X013201Y004463D01*
X013201Y004813D01*
X013651Y004913D02*
X013751Y004763D01*
X013901Y004613D01*
X014451Y004613D01*
X014501Y004563D01*
X014501Y004513D01*
X014651Y004363D01*
X014751Y004213D01*
X014801Y004063D01*
X015001Y003963D02*
X015051Y003913D01*
X015001Y003963D02*
X015001Y004463D01*
X014851Y004613D01*
X014851Y004763D01*
X014751Y004913D01*
X014751Y005413D01*
X014251Y005563D02*
X014351Y005813D01*
X014251Y005563D02*
X014251Y005063D01*
X014201Y004913D01*
X015301Y005563D02*
X015301Y004213D01*
X015301Y003663D02*
X016301Y003663D01*
X016301Y004913D02*
X016301Y005563D01*
X016351Y005813D01*
X015851Y005513D02*
X015851Y005063D01*
X015751Y004913D01*
X015301Y005563D02*
X015351Y005813D01*
X012601Y005813D02*
X012601Y004313D01*
X024201Y013363D02*
X028151Y009413D01*
X034851Y009413D01*
X035101Y009313D01*
X024601Y013813D02*
X024401Y014213D01*
X023101Y015513D01*
X022101Y015963D02*
X023601Y014463D01*
X023801Y014463D01*
X024201Y014063D01*
X024201Y013363D01*
X022101Y015963D02*
X021851Y015963D01*
X021601Y016313D01*
X027101Y023413D02*
X027251Y023563D01*
X009151Y020163D02*
X008901Y020163D01*
X007201Y021863D01*
X006901Y021413D02*
X003351Y021413D01*
X003101Y021313D01*
X006901Y021413D02*
X008651Y019663D01*
D22*
X008651Y019663D03*
X009151Y020163D03*
X007051Y022313D03*
X008101Y022763D03*
X005401Y018063D03*
X004701Y018263D03*
X007051Y017713D03*
X009001Y015613D03*
X004051Y011863D03*
X006851Y008613D03*
X003851Y008113D03*
X006201Y005413D03*
X008151Y005413D03*
X007251Y003813D03*
X009151Y003813D03*
X011151Y003813D03*
X013101Y003813D03*
X013201Y004813D03*
X014276Y003888D03*
X016301Y003913D03*
X016951Y005413D03*
X017951Y005413D03*
X018851Y005513D03*
X019651Y005063D03*
X020601Y003963D03*
X022101Y005463D03*
X018351Y003913D03*
X015851Y005513D03*
X014751Y005413D03*
X016001Y008863D03*
X020001Y008513D03*
X020651Y008663D03*
X016051Y012513D03*
X018201Y012863D03*
X017101Y015713D03*
X016101Y015713D03*
X017751Y017163D03*
X023101Y015513D03*
X024051Y015513D03*
X033101Y020713D03*
X034501Y021863D03*
X031401Y024913D03*
X026951Y023763D03*
D23*
X004501Y002613D02*
X003101Y003713D01*
X003101Y003913D01*
X001901Y003913D01*
X001101Y004713D01*
X001101Y010813D01*
X001101Y016763D01*
X001101Y021313D01*
X001101Y021513D01*
X001301Y021313D01*
X002101Y021313D01*
X001101Y010813D02*
X001601Y010313D01*
X002101Y010313D01*
X004501Y002613D02*
X025501Y002613D01*
X028721Y005534D01*
X030101Y005534D01*
D24*
X006101Y022313D02*
X004101Y022313D01*
X004101Y025213D01*
X001101Y025213D01*
X001101Y021313D01*
X003101Y005313D02*
X003101Y003913D01*
D25*
X003851Y008113D02*
X005601Y007813D01*
M02*
